HIERARCHY
ROOT Hips
{
	OFFSET 0.000000 0.000000 0.000000 
	CHANNELS 6 Xposition Yposition Zposition Yrotation Zrotation Xrotation 
	JOINT Lumbar
	{
		OFFSET 0.000000 0.000000 0.000000 
		CHANNELS 3 Zrotation Xrotation Yrotation
		JOINT Neck
		{
			OFFSET 0.000000 0.445665 0.000000 
			CHANNELS 3 Zrotation Xrotation Yrotation
			End Site
			{
				OFFSET 0.000000 0.227535 0.000000 
			}
		}
		JOINT RightShoulder
		{
			OFFSET 0.019635 0.377685 0.194865 
			CHANNELS 3 Zrotation Xrotation Yrotation
			JOINT RightElbow
			{
				OFFSET 0.000000 -0.243375 0.000000 
				CHANNELS 2 Zrotation Yrotation
				JOINT RightWrist
				{
					OFFSET 0.000000 -0.264825 0.000000 
					CHANNELS 2 Zrotation Xrotation
					End Site
					{
						OFFSET 0.006600 -0.176220 0.000990 
					}
				}
			}
		}
		JOINT LeftShoulder
		{
			OFFSET 0.019635 0.377685 -0.194865 
			CHANNELS 3 Zrotation Xrotation Yrotation
			JOINT LeftElbow
			{
				OFFSET 0.000000 -0.243375 0.000000 
				CHANNELS 2 Zrotation Yrotation
				JOINT LeftWrist
				{
					OFFSET 0.000000 -0.264825 0.000000 
					CHANNELS 2 Zrotation Xrotation
					End Site
					{
						OFFSET 0.006600 -0.176220 -0.000990 
					}
				}
			}
		}
	}
	JOINT RightHip
	{
		OFFSET 0.052140 -0.069960 0.075570 
		CHANNELS 3 Zrotation Xrotation Yrotation
		JOINT RightKnee
		{
			OFFSET 0.000000 -0.402270 0.000000 
			CHANNELS 1 Zrotation
			JOINT RightAnkle
			{
				OFFSET 0.000000 -0.404085 0.000000 
				CHANNELS 3 Zrotation Xrotation Yrotation
				End Site
				{
					OFFSET 0.204105 -0.089430 0.008415 
				}
			}
		}
	}
	JOINT LeftHip
	{
		OFFSET 0.052140 -0.069960 -0.075570 
		CHANNELS 3 Zrotation Xrotation Yrotation
		JOINT LeftKnee
		{
			OFFSET 0.000000 -0.402270 0.000000 
			CHANNELS 1 Zrotation
			JOINT LeftAnkle
			{
				OFFSET 0.000000 -0.404085 0.000000 
				CHANNELS 3 Zrotation Xrotation Yrotation
				End Site
				{
					OFFSET 0.204105 -0.089430 -0.008415 
				}
			}
		}
	}
}
MOTION
Frames: 19
Frame Time: 0.02
0.00396 -0.00033 -0.00022 19.8675 -34.59503 -1.55983 57.20452 -0.87507 1.54738 -4.78884 -1.50252 -0.64253 142.13975 -80.7985 -71.30978 10.80959 70.70261 -0.28169 -5.75631 160.05448 75.97957 72.1305 10.10081 -78.22406 -1.35537 10.41398 46.48632 0.09464 -1.95809 -18.53469 -7.83431 -4.46708 -4.39899 52.81281 -0.21875 -0.77685 -24.30442 -8.63745 4.39169 4.49598
0.00278 -0.00025 0.0003 19.80589 -34.58804 -1.57002 57.11976 -0.83134 1.59396 -4.80738 -1.49169 -0.64312 141.76474 -80.79098 -71.82545 10.82253 70.6246 -0.23072 -5.72943 159.78859 76.02005 72.58831 10.07634 -78.19702 -1.30303 10.37624 46.575 -0.05131 -2.83811 -18.57863 -7.77299 -4.38015 -4.35944 52.86447 0.02314 0.23408 -24.29982 -8.57854 4.32819 4.45856
0.0016 -0.00018 0.00083 19.74436 -34.58099 -1.5802 57.03508 -0.78771 1.64049 -4.82605 -1.48087 -0.64382 141.38971 -80.78344 -72.34083 10.83538 70.5466 -0.17986 -5.70257 159.52242 76.0604 73.0465 10.05166 -78.16993 -1.25073 10.33838 46.66357 -0.19689 -3.71578 -18.6225 -7.71186 -4.29345 -4.32 52.91606 0.26442 1.24248 -24.29524 -8.51981 4.26484 4.42124
0.00043 -0.00011 0.00135 19.68292 -34.57401 -1.59036 56.95056 -0.74411 1.68694 -4.84456 -1.47007 -0.64441 141.01574 -80.77592 -72.85511 10.84827 70.4688 -0.12904 -5.67577 159.25727 76.10075 73.50322 10.02724 -78.14296 -1.1985 10.30075 46.752 -0.3424 -4.59314 -18.66631 -7.65072 -4.20677 -4.28057 52.96757 0.50558 2.25039 -24.29065 -8.46108 4.20154 4.38393
-0.00074 -3e-05 0.00187 19.62146 -34.5671 -1.60053 56.866 -0.70042 1.7334 -4.86288 -1.45927 -0.64485 140.64201 -80.76845 -73.36925 10.86125 70.39106 -0.07816 -5.64895 158.99255 76.14123 73.95881 10.00309 -78.11606 -1.14636 10.26324 46.84052 -0.48824 -5.4727 -18.71017 -7.58941 -4.11989 -4.24104 53.01914 0.74732 3.26062 -24.28606 -8.40219 4.1381 4.34654
-0.00192 4e-05 0.0024 19.5598 -34.55978 -1.61074 56.78108 -0.65692 1.78007 -4.8823 -1.44841 -0.64611 140.26416 -80.76079 -73.88722 10.87381 70.3125 -0.02736 -5.62198 158.72323 76.18134 74.42236 9.97728 -78.08856 -1.09379 10.22462 46.92917 -0.63326 -6.34636 -18.75408 -7.52865 -4.03358 -4.20177 53.07076 0.9876 4.2651 -24.28148 -8.34378 4.07495 4.30936
-0.00308 0.00011 0.00292 19.49858 -34.55331 -1.62085 56.69703 -0.61309 1.82628 -4.89943 -1.4377 -0.64571 139.89556 -80.75345 -74.39679 10.88726 70.23575 0.02359 -5.59543 158.46414 76.22212 74.86959 9.95497 -78.06239 -1.04193 10.18847 47.01741 -0.77976 -7.2309 -18.79779 -7.46684 -3.9462 -4.16203 53.1222 1.23053 5.28001 -24.27687 -8.28446 4.01129 4.27179
-0.00426 0.00019 0.00344 19.43697 -34.54601 -1.63107 56.61209 -0.56958 1.8729 -4.91879 -1.42682 -0.64684 139.51745 -80.74593 -74.91432 10.89975 70.15718 0.07431 -5.56834 158.19435 76.26233 75.33153 9.92916 -78.03482 -0.98979 10.1497 47.10612 -0.92492 -8.10542 -18.84179 -7.406 -3.85981 -4.12272 53.17384 1.47103 6.28538 -24.2723 -8.22598 3.94809 4.23458
-0.00546 0.00025 0.00396 19.37481 -34.53787 -1.64135 56.52632 -0.52635 1.92011 -4.94045 -1.41581 -0.64985 139.13125 -80.73773 -75.44118 10.91164 70.07691 0.12516 -5.54117 157.9162 76.30166 75.81333 9.90011 -78.00618 -0.93577 10.10902 47.19512 -1.06845 -8.96809 -18.88574 -7.34634 -3.77457 -4.08391 53.22565 1.70866 7.2793 -24.26775 -8.16853 3.88546 4.1978
-0.00655 0.00035 0.0045 19.31557 -34.53507 -1.65107 56.4461 -0.48115 1.9642 -4.9476 -1.4058 -0.64209 138.80217 -80.73206 -75.91319 10.92871 70.00798 0.17652 -5.51622 157.70033 76.34549 76.18654 9.8928 -77.98565 -0.88793 10.0832 47.28158 -1.22137 -9.90017 -18.92877 -7.27985 -3.68255 -4.04218 53.27623 1.96311 8.33976 -24.263 -8.10514 3.81956 4.15854
-0.00787 0.00038 0.005 19.25037 -34.52068 -1.66209 56.3537 -0.44037 2.01467 -4.98614 -1.39355 -0.657 138.346 -80.72195 -76.50148 10.93375 69.91418 0.22597 -5.48546 157.34412 76.3802 76.78498 9.83769 -77.94677 -0.83004 10.02361 47.37391 -1.35444 -10.68493 -18.9745 -7.22781 -3.60494 -4.00665 53.32954 2.18183 9.25927 -24.25874 -8.0543 3.76057 4.12451
-0.00982 0.00024 0.0054 19.16687 -34.47663 -1.67563 56.23108 -0.40988 2.08445 -5.10564 -1.3761 -0.73527 137.58082 -80.69233 -77.40524 10.91381 69.76172 0.27635 -5.44816 156.66911 76.38649 78.03745 9.66687 -77.868 -0.71805 9.88812 47.47872 -1.43308 -11.06914 -19.02217 -7.21537 -3.56645 -3.98781 53.38946 2.30366 9.79349 -24.25527 -8.03811 3.72046 4.10493
-0.01203 3e-05 0.00576 19.07781 -34.42043 -1.69061 56.09542 -0.38429 2.16018 -5.25767 -1.35622 -0.83608 136.67362 -80.65976 -78.42445 10.87982 69.58441 0.3231 -5.40356 155.83895 76.38417 79.50755 9.44588 -77.7695 -0.59971 9.71419 47.59023 -1.4919 -11.30494 -19.07391 -7.21743 -3.54251 -3.97526 53.45227 2.38939 10.18596 -24.25242 -8.03447 3.68727 4.09058
-0.01414 -0.00016 0.00614 18.99247 -34.36848 -1.70566 55.96389 -0.35747 2.23217 -5.39816 -1.33685 -0.92587 135.81444 -80.63313 -79.39576 10.84766 69.40974 0.36821 -5.35579 155.03895 76.3881 80.85697 9.23684 -77.67238 -0.50308 9.54869 47.70088 -1.55961 -11.60597 -19.12695 -7.21286 -3.51224 -3.96007 53.51437 2.49093 10.64231 -24.24962 -8.02493 3.65096 4.07377
-0.01613 -0.0003 0.00652 18.90177 -34.32225 -1.71784 55.84079 -0.3259 2.30907 -5.52488 -1.32006 -1.01912 135.05362 -80.58647 -80.35623 10.83674 69.26368 0.42955 -5.33422 154.41688 76.38248 82.30652 9.07062 -77.60463 -0.33177 9.42711 47.80179 -1.62728 -11.9152 -19.16536 -7.20852 -3.48086 -3.94401 53.57403 2.59501 11.10051 -24.24533 -8.01624 3.6146 4.05733
-0.01846 -0.00057 0.00688 18.82133 -34.26078 -1.73612 55.69597 -0.30608 2.37651 -5.68816 -1.29724 -1.11035 134.01805 -80.5816 -81.35635 10.77569 69.06201 0.45331 -5.25785 153.37753 76.3943 83.58938 8.80694 -77.47431 -0.30849 9.19762 47.92524 -1.69093 -12.17322 -19.2369 -7.20712 -3.45519 -3.93122 53.63934 2.6851 11.52143 -24.24439 -8.00875 3.57991 4.04134
-0.02159 -0.00117 0.00721 18.76694 -34.16409 -1.7728 55.50342 -0.31165 2.42188 -5.94284 -1.25892 -1.19164 132.56093 -80.68396 -82.50434 10.60284 68.6259 0.39425 -5.01763 151.29684 76.46125 84.40837 8.25749 -77.14799 -0.75461 8.74759 48.10388 -1.74298 -12.31714 -19.38447 -7.21048 -3.44218 -3.92623 53.72091 2.74683 11.87225 -24.25165 -8.0017 3.54876 4.02559
-0.02505 -0.00191 0.00752 18.72368 -34.05191 -1.81532 55.28775 -0.32993 2.45651 -6.23346 -1.21447 -1.26988 130.77066 -80.82859 -83.66121 10.37671 68.1492 0.29035 -4.72419 148.77989 76.54597 85.02033 7.61856 -76.76465 -1.34407 8.18137 48.30626 -1.79245 -12.41592 -19.56798 -7.21632 -3.43436 -3.92429 53.8081 2.79551 12.1902 -24.26242 -7.99544 3.51897 4.01008
-0.02839 -0.00259 0.00785 18.67775 -33.94405 -1.85375 55.07674 -0.34628 2.49243 -6.50863 -1.17253 -1.34872 128.94111 -80.96161 -84.78878 10.15847 67.75032 0.19816 -4.46581 146.42514 76.61836 85.72287 7.0377 -76.42577 -1.82259 7.61894 48.50095 -1.84684 -12.54192 -19.74445 -7.22085 -3.42384 -3.92072 53.8914 2.84919 12.52524 -24.27216 -7.9886 3.48807 3.99421
